<?xml version="1.0" encoding="UTF-8"?>
<svg id="Layer_1" data-name="Layer 1" xmlns="http://www.w3.org/2000/svg" viewBox="0 0 735.36 748.55">
  <defs>
    <style>
      .cls-1 {
        fill: #ab5e82;
      }
    </style>
  </defs>
  <g>
    <polygon class="cls-1" points="633.37 307.36 488.93 559.36 482.19 571.09 470.63 565.19 474 559.36 580.65 374.41 588.29 361.17 600.93 339.26 608.33 326.38 619.29 307.36 626.39 295.09 629.76 301.05 633.37 307.36"/>
    <polygon class="cls-1" points="513.02 564.29 645.89 329.2 653.9 343.24 528.25 563.3 513.02 564.29"/>
    <polygon class="cls-1" points="549.46 563.7 663.95 361.61 671.53 374.88 560.21 571.46 549.46 563.7"/>
    <polygon class="cls-1" points="639.99 480 685.49 399.41 693.37 413.13 647.71 493.22 639.99 480"/>
    <polygon class="cls-1" points="682.22 552.36 727.37 472.68 735.36 486.69 689.8 565.5 682.22 552.36"/>
    <polygon class="cls-1" points="661.91 517.55 707.21 437.55 714.99 451.11 669.63 530.8 661.91 517.55"/>
  </g>
  <g>
    <polygon class="cls-1" points="588.29 361.17 580.65 374.41 474.06 188.38 261.37 188.44 154.55 374.59 260.95 559.36 258.6 559.36 258.6 572.17 268.29 572.17 281.65 595.35 278.7 595.35 280.99 609.37 289.72 609.31 299.95 627.12 296.58 627.12 298.69 640.48 307.65 640.48 307.71 640.6 291.58 640.54 146.78 388.07 136.49 405.95 270.82 640.66 255.05 640.6 129.09 418.95 117.95 438.33 116.63 436.04 106.28 444.83 101.76 437.12 245.54 188.44 220.33 188.5 220.27 188.5 90.09 416.78 82.2 403.06 204.56 188.5 178.56 188.5 67.58 378.32 60.18 365.2 170.01 175.56 170.43 176.04 171.16 174.78 466.54 175.2 453.9 153.17 182.89 153.59 190.78 139.93 446.5 140.29 434.76 119.77 202.27 120.01 210.16 106.29 434.7 106.17 434.7 106.17 442.83 106.41 588.29 361.17"/>
    <polygon class="cls-1" points="361.41 13.44 263.7 13.56 271.54 0 369.05 .14 361.41 13.44"/>
    <polygon class="cls-1" points="342.1 46.59 244.58 46.71 252.41 33.15 349.77 33.27 342.1 46.59"/>
    <polygon class="cls-1" points="321.49 82.21 223.97 82.33 231.79 68.77 329.15 68.89 321.49 82.21"/>
  </g>
  <g>
    <polygon class="cls-1" points="594.91 372.72 583.9 380.07 580.65 374.41 588.29 361.17 594.91 372.72"/>
    <polygon class="cls-1" points="602.41 341.92 465.68 106 481.49 105.88 613.26 334.95 602.41 341.92"/>
    <polygon class="cls-1" points="620.54 309.52 502.61 105.82 518.38 105.73 629.77 301.06 620.54 309.52"/>
    <polygon class="cls-1" points="676.49 186.96 629.13 105.12 644.89 105.04 691.73 186.72 676.49 186.96"/>
    <polygon class="cls-1" points="634.2 187.03 586.95 105.34 602.54 105.27 649.43 186.77 634.2 187.03"/>
    <polygon class="cls-1" points="593.17 187.21 545.93 105.57 561.52 105.51 608.66 187.1 593.17 187.21"/>
  </g>
  <g>
    <polygon class="cls-1" points="117.95 438.33 110.31 451.63 106.28 444.83 116.63 436.04 117.95 438.33"/>
    <polygon class="cls-1" points="91.48 269.68 48.56 345.22 41.04 332.23 83.94 256.63 91.48 269.68"/>
    <polygon class="cls-1" points="51.64 200.68 7.66 274.44 0 261.25 42.89 185.59 51.64 200.68"/>
    <polygon class="cls-1" points="71.5 235.03 28.54 310.62 20.93 297.59 63.73 221.59 71.5 235.03"/>
  </g>
  <g>
    <polygon class="cls-1" points="566.99 559.36 562.35 567.6 560.19 571.45 559.7 572.36 268.29 572.17 258.6 572.17 258.6 559.36 566.99 559.36"/>
    <polygon class="cls-1" points="528.59 627.3 520.95 640.97 307.65 640.48 298.69 640.48 296.58 627.12 299.95 627.12 528.59 627.3"/>
    <polygon class="cls-1" points="459.87 748.55 366.62 747.76 374.45 734.32 467.85 734.44 459.87 748.55"/>
    <polygon class="cls-1" points="546.64 595.35 539.3 608.29 289.72 609.31 280.99 609.37 278.7 595.35 546.64 595.35"/>
    <polygon class="cls-1" points="479.17 714.46 385.89 713.85 393.71 700.44 487.04 700.59 479.17 714.46"/>
    <polygon class="cls-1" points="499.61 678.4 406.75 677.78 414.39 664.38 507.47 664.53 499.61 678.4"/>
  </g>
  <g>
    <polygon class="cls-1" points="268.29 572.17 258.6 572.17 258.6 559.36 260.95 559.36 268.29 572.17"/>
    <polygon class="cls-1" points="289.72 609.31 280.99 609.37 278.7 595.35 281.65 595.35 289.72 609.31"/>
    <polygon class="cls-1" points="307.65 640.48 298.69 640.48 296.58 627.12 299.95 627.12 307.65 640.48"/>
    <polygon class="cls-1" points="235.67 640.42 219.78 640.42 106.22 444.89 106.28 444.83 116.63 436.04 117.95 438.33 235.67 640.42"/>
    <polygon class="cls-1" points="60.94 561.19 106.38 640.52 90.89 640.71 45.73 561.22 60.94 561.19"/>
    <polygon class="cls-1" points="104.68 561.03 150.06 640.53 134.61 640.55 89.53 561.11 104.68 561.03"/>
    <polygon class="cls-1" points="149.12 560.96 194.79 640.46 179.11 640.48 133.97 560.98 149.12 560.96"/>
  </g>
</svg>