<?xml version="1.0" encoding="UTF-8"?>
<svg id="Layer_1" data-name="Layer 1" xmlns="http://www.w3.org/2000/svg" viewBox="0 0 864 750.56">
  <defs>
    <style>
      .cls-1 {
        fill: #181a4a;
      }
    </style>
  </defs>
  <polygon class="cls-1" points="538.3 188.61 324.9 188.61 218.2 374.26 324.9 559.91 538.3 559.91 644.99 374.26 538.3 188.61"/>
  <polygon class="cls-1" points="167.98 291.16 107.14 185.83 214.45 0 335.74 .17 167.98 291.16"/>
  <polygon class="cls-1" points="371.63 107.05 433.23 .33 648.11 .03 709.08 105.23 371.63 107.05"/>
  <polygon class="cls-1" points="237.38 561.06 109.91 561.4 0 372.68 64.19 261.44 237.38 561.06"/>
  <polygon class="cls-1" points="628.65 187.61 755.84 186.68 864 374.35 799.55 486.86 628.65 187.61"/>
  <polygon class="cls-1" points="689.93 455.72 754.01 565.61 647.97 750.56 524.02 748.74 689.93 455.72"/>
  <polygon class="cls-1" points="492.18 640.79 430.9 747.9 214.23 747.72 154.94 640.71 492.18 640.79"/>
</svg>