<?xml version="1.0" encoding="UTF-8"?>
<svg id="Layer_1" xmlns="http://www.w3.org/2000/svg" version="1.1" viewBox="0 0 1673.1 3152.64">
  <!-- Generator: Adobe Illustrator 29.5.1, SVG Export Plug-In . SVG Version: 2.1.0 Build 141)  -->
  <defs>
    <style>
      .st0, .st1, .st2, .st3 {
        fill-opacity: .5;
      }

      .st1 {
        fill: #680a02;
      }

      .st2 {
        fill: #f2ceca;
      }

      .st3 {
        fill: #e27910;
      }
    </style>
  </defs>
  <rect class="st2" x="451.09" y="1829.76" width="604" height="2889" transform="translate(-2459.05 2289.32) rotate(-60)"/>
  <rect class="st2" x="-799.74" y="2170.5" width="3111.2" height="619.06" transform="translate(-935.8 515.3) rotate(-23.78)"/>
  <path class="st2" d="M-150.67,836.7l2613.25,1281.27-257.95,559.91L-408.62,1396.6-150.67,836.7Z"/>
  <rect class="st2" x="-403.09" y="555.05" width="2889" height="640.8" transform="translate(-237.04 410.13) rotate(-20.05)"/>
  <rect class="st2" x="538.82" y="-1282.67" width="593.39" height="2889" transform="translate(277.61 804.5) rotate(-60)"/>
  <rect class="st2" x="-1047.04" y="-1040.44" width="3111.2" height="587.1" transform="translate(247.09 118.04) rotate(-17.43)"/>
  <path class="st3" d="M4600.86,2633.26l2797.81-720.28,150.54,584.94-2797.81,720.28-150.54-584.94Z"/>
  <rect class="st2" x="-1032.77" y="-3966.48" width="2889" height="604" transform="translate(2068 -369.83) rotate(-33.1)"/>
  <rect class="st1" x="550.51" y="3158.78" width="593.39" height="2889" transform="translate(-3562.95 3035.34) rotate(-60)"/>
  <rect class="st0" x="-878.42" y="3653.84" width="3111.2" height="587.1" transform="translate(-1151.36 384.12) rotate(-17.43)"/>
</svg>