<svg width="1728" height="1117" viewBox="0 0 1728 1117" fill="none" xmlns="http://www.w3.org/2000/svg">
<g clip-path="url(#clip0_18_2)">
<rect width="1728" height="1117" fill="#1C2951"/>
<path d="M1661.89 318.749L1929.02 581.676L1830.29 926.098L1464.45 1007.59L1197.32 744.667L1296.05 400.245L1661.89 318.749Z" fill="#929292"/>
<path d="M1716.77 137.855L1856.66 275.543L1804.96 455.908L1613.37 498.585L1473.49 360.897L1525.19 180.532L1716.77 137.855Z" fill="#AB5E82"/>
<path d="M1654.66 356.463L1585.27 598.55L1327.92 655.878L1140.01 470.924L1209.4 228.837L1466.75 171.509L1654.66 356.463Z" stroke="#D9D9D9" stroke-width="4"/>
<path d="M269.893 422.749L537.016 685.676L438.293 1030.1L72.4459 1111.59L-194.678 848.667L-95.9544 504.245L269.893 422.749Z" fill="#D9D9D9"/>
<path d="M519.659 445.463L450.268 687.55L192.917 744.878L5.01092 559.924L74.4015 317.837L331.753 260.509L519.659 445.463Z" stroke="#AB5E82" stroke-width="4"/>
<path d="M460.393 529.181L613.861 680.237L557.142 878.115L346.956 924.936L193.488 773.879L250.207 576.001L460.393 529.181Z" fill="#929292"/>
</g>
<defs>
<clipPath id="clip0_18_2">
<rect width="1728" height="1117" fill="white"/>
</clipPath>
</defs>
</svg>
