<svg width="1728" height="1117" viewBox="0 0 1728 1117" fill="none" xmlns="http://www.w3.org/2000/svg">
<g clip-path="url(#clip0_18_2)">
<rect width="1728" height="1117" fill="#1C2951"/>
<path d="M1565.19 306.909L1812.21 550.047L1720.92 868.548L1382.61 943.909L1135.59 700.771L1226.88 382.271L1565.19 306.909Z" fill="#929292"/>
<path d="M1621.48 221.006L1750.84 348.331L1703.03 515.122L1525.87 554.587L1396.51 427.262L1444.32 260.471L1621.48 221.006Z" fill="#AB5E82"/>
<path d="M1776.34 833.829L1712.22 1057.52L1474.4 1110.5L1300.76 939.586L1364.88 715.891L1602.69 662.916L1776.34 833.829Z" stroke="#D9D9D9" stroke-width="4"/>
<path d="M1558.34 341.829L1494.22 565.524L1256.4 618.5L1082.76 447.586L1146.88 223.891L1384.69 170.916L1558.34 341.829Z" stroke="#D9D9D9" stroke-width="4"/>
<path d="M281.518 269.17L532.329 516.04L439.635 839.429L96.1291 915.948L-154.682 669.078L-61.9876 345.688L281.518 269.17Z" fill="#D9D9D9"/>
<path d="M515.894 290.532L450.781 517.696L209.281 571.492L32.9503 397.932L98.0638 170.767L339.562 116.971L515.894 290.532Z" stroke="#AB5E82" stroke-width="4"/>
<path d="M460.386 369.101L604.482 510.933L551.227 696.727L353.876 740.689L209.78 598.857L263.035 413.063L460.386 369.101Z" fill="#929292"/>
<path d="M580.077 755.978L506.451 1024.37L222.811 1090.96L12.8497 888.966L86.4749 620.574L370.115 553.982L580.077 755.978Z" stroke="#AB5E82" stroke-width="4"/>
</g>
<defs>
<clipPath id="clip0_18_2">
<rect width="1728" height="1117" fill="white"/>
</clipPath>
</defs>
</svg>
