<svg width="1728" height="1117" viewBox="0 0 1728 1117" fill="none" xmlns="http://www.w3.org/2000/svg">
<g clip-path="url(#clip0_16_12)">
<rect width="1728" height="1117" fill="#1C2951"/>
<path d="M1661.89 318.749L1929.02 581.676L1830.29 926.098L1464.45 1007.59L1197.32 744.667L1296.05 400.245L1661.89 318.749Z" fill="#929292"/>
<path d="M1716.77 137.855L1856.66 275.543L1804.96 455.908L1613.37 498.585L1473.49 360.897L1525.19 180.532L1716.77 137.855Z" fill="#AB5E82"/>
<path d="M1891.66 893.463L1822.27 1135.55L1564.92 1192.88L1377.01 1007.92L1446.4 765.837L1703.75 708.509L1891.66 893.463Z" stroke="#D9D9D9" stroke-width="4"/>
<path d="M1654.66 356.463L1585.27 598.55L1327.92 655.878L1140.01 470.924L1209.4 228.837L1466.75 171.509L1654.66 356.463Z" stroke="#D9D9D9" stroke-width="4"/>
<path d="M260.892 463.749L528.016 726.676L429.293 1071.1L63.4457 1152.59L-203.678 889.667L-104.955 545.245L260.892 463.749Z" fill="#D9D9D9"/>
<path d="M510.659 486.463L441.268 728.55L183.917 785.878L-3.98908 600.924L65.4015 358.837L322.753 301.509L510.659 486.463Z" stroke="#AB5E82" stroke-width="4"/>
<path d="M451.393 570.181L604.861 721.237L548.142 919.115L337.956 965.936L184.488 814.879L241.207 617.001L451.393 570.181Z" fill="#929292"/>
<path d="M634.177 977.343L555.723 1263.34L253.49 1334.3L29.7664 1119.06L108.221 833.063L410.453 762.106L634.177 977.343Z" stroke="#AB5E82" stroke-width="4"/>
<path d="M402.816 450.96C397.504 450.96 392.864 449.936 388.896 447.888C384.992 445.776 381.952 442.8 379.776 438.96C377.6 435.12 376.512 430.576 376.512 425.328V422.448C376.512 417.264 377.6 412.784 379.776 409.008C382.016 405.232 385.152 402.32 389.184 400.272C393.216 398.224 397.92 397.2 403.296 397.2C410.592 397.2 416.224 399.344 420.192 403.632C424.224 407.856 426.24 413.84 426.24 421.584V426.576C426.24 434.384 424.192 440.4 420.096 444.624C416 448.848 410.24 450.96 402.816 450.96ZM367.68 398.16H377.28L382.752 414.288V467.28H367.68V398.16ZM398.304 440.304C402.336 440.304 405.472 439.056 407.712 436.56C410.016 434.064 411.168 430.64 411.168 426.288V422.16C411.168 417.744 410.016 414.288 407.712 411.792C405.472 409.296 402.336 408.048 398.304 408.048C393.504 408.048 389.696 409.392 386.88 412.08C384.128 414.768 382.752 418.48 382.752 423.216V424.752C382.752 429.552 384.128 433.36 386.88 436.176C389.696 438.928 393.504 440.304 398.304 440.304ZM473.03 431.472V418.992C473.03 415.152 471.782 412.304 469.286 410.448C466.79 408.592 462.982 407.664 457.862 407.664C454.726 407.664 451.558 408.08 448.358 408.912C445.222 409.68 442.214 410.8 439.334 412.272L437.318 402.192C439.494 401.168 441.958 400.304 444.71 399.6C447.526 398.832 450.406 398.256 453.35 397.872C456.358 397.424 459.174 397.2 461.798 397.2C470.758 397.2 477.446 399.024 481.862 402.672C486.342 406.256 488.582 411.696 488.582 418.992V450H476.294L473.03 431.472ZM455.846 450.96C449.574 450.96 444.646 449.616 441.062 446.928C437.542 444.176 435.782 440.368 435.782 435.504V434.064C435.782 429.136 437.574 425.328 441.158 422.64C444.742 419.888 449.766 418.512 456.23 418.512C463.078 418.512 468.422 419.856 472.262 422.544C476.166 425.168 478.118 428.912 478.118 433.776V435.216C478.118 440.144 476.166 444.016 472.262 446.832C468.358 449.584 462.886 450.96 455.846 450.96ZM460.166 443.664C464.006 443.664 467.046 442.896 469.286 441.36C471.526 439.76 472.646 437.616 472.646 434.928V433.776C472.646 431.216 471.558 429.232 469.382 427.824C467.27 426.352 464.326 425.616 460.55 425.616C457.094 425.616 454.374 426.352 452.39 427.824C450.406 429.296 449.414 431.376 449.414 434.064V435.12C449.414 437.744 450.374 439.824 452.294 441.36C454.214 442.896 456.838 443.664 460.166 443.664ZM525.457 450.96C517.201 450.96 510.929 449.616 506.641 446.928C502.353 444.24 499.729 440.016 498.769 434.256L513.649 433.584C514.097 436.72 515.281 439.056 517.201 440.592C519.121 442.128 521.841 442.896 525.361 442.896C528.625 442.896 531.153 442.32 532.945 441.168C534.737 439.952 535.633 438.256 535.633 436.08C535.633 434.416 534.961 433.104 533.617 432.144C532.337 431.12 530.641 430.352 528.529 429.84C526.417 429.264 524.081 428.784 521.521 428.4C519.025 427.952 516.497 427.44 513.937 426.864C511.377 426.224 509.041 425.36 506.929 424.272C504.881 423.184 503.185 421.712 501.841 419.856C500.561 418 499.921 415.6 499.921 412.656C499.921 407.6 502.065 403.76 506.353 401.136C510.641 398.512 516.945 397.2 525.265 397.2C530.577 397.2 535.089 397.776 538.801 398.928C542.513 400.08 545.425 401.84 547.537 404.208C549.713 406.512 551.089 409.424 551.665 412.944L536.689 413.616C536.369 410.8 535.281 408.72 533.425 407.376C531.633 405.968 529.105 405.264 525.841 405.264C522.641 405.264 520.145 405.872 518.353 407.088C516.625 408.24 515.761 409.936 515.761 412.176C515.761 413.904 516.401 415.28 517.681 416.304C519.025 417.328 520.753 418.128 522.865 418.704C524.977 419.28 527.281 419.792 529.777 420.24C532.337 420.624 534.897 421.104 537.457 421.68C540.017 422.256 542.321 423.088 544.369 424.176C546.481 425.264 548.177 426.704 549.457 428.496C550.801 430.288 551.473 432.656 551.473 435.6C551.473 440.592 549.265 444.4 544.849 447.024C540.433 449.648 533.969 450.96 525.457 450.96ZM586.488 450.96C578.232 450.96 571.96 449.616 567.672 446.928C563.384 444.24 560.76 440.016 559.8 434.256L574.68 433.584C575.128 436.72 576.312 439.056 578.232 440.592C580.152 442.128 582.872 442.896 586.392 442.896C589.656 442.896 592.184 442.32 593.976 441.168C595.768 439.952 596.664 438.256 596.664 436.08C596.664 434.416 595.992 433.104 594.648 432.144C593.368 431.12 591.672 430.352 589.56 429.84C587.448 429.264 585.112 428.784 582.552 428.4C580.056 427.952 577.528 427.44 574.968 426.864C572.408 426.224 570.072 425.36 567.96 424.272C565.912 423.184 564.216 421.712 562.872 419.856C561.592 418 560.952 415.6 560.952 412.656C560.952 407.6 563.096 403.76 567.384 401.136C571.672 398.512 577.976 397.2 586.296 397.2C591.608 397.2 596.12 397.776 599.832 398.928C603.544 400.08 606.456 401.84 608.568 404.208C610.744 406.512 612.12 409.424 612.696 412.944L597.72 413.616C597.4 410.8 596.312 408.72 594.456 407.376C592.664 405.968 590.136 405.264 586.872 405.264C583.672 405.264 581.176 405.872 579.384 407.088C577.656 408.24 576.792 409.936 576.792 412.176C576.792 413.904 577.432 415.28 578.712 416.304C580.056 417.328 581.784 418.128 583.896 418.704C586.008 419.28 588.312 419.792 590.808 420.24C593.368 420.624 595.928 421.104 598.488 421.68C601.048 422.256 603.352 423.088 605.4 424.176C607.512 425.264 609.208 426.704 610.488 428.496C611.832 430.288 612.504 432.656 612.504 435.6C612.504 440.592 610.296 444.4 605.88 447.024C601.464 449.648 595 450.96 586.488 450.96ZM638.783 398.16V450H623.711V398.16H638.783ZM639.359 377.616V391.728H623.135V377.616H639.359ZM680.04 450.96C674.024 450.96 668.808 450 664.392 448.08C659.976 446.096 656.584 443.28 654.216 439.632C651.848 435.92 650.664 431.568 650.664 426.576V421.584C650.664 416.528 651.848 412.208 654.216 408.624C656.584 404.976 659.976 402.16 664.392 400.176C668.808 398.192 674.024 397.2 680.04 397.2C686.12 397.2 691.368 398.192 695.784 400.176C700.2 402.096 703.56 404.88 705.864 408.528C708.232 412.176 709.416 416.528 709.416 421.584V426.576C709.416 431.632 708.232 435.984 705.864 439.632C703.56 443.28 700.2 446.096 695.784 448.08C691.432 450 686.184 450.96 680.04 450.96ZM680.04 439.92C684.456 439.92 687.944 438.704 690.504 436.272C693.128 433.776 694.44 430.448 694.44 426.288V421.872C694.44 417.648 693.128 414.32 690.504 411.888C687.944 409.456 684.456 408.24 680.04 408.24C675.688 408.24 672.2 409.488 669.576 411.984C667.016 414.416 665.736 417.712 665.736 421.872V426.288C665.736 430.448 667.016 433.776 669.576 436.272C672.2 438.704 675.688 439.92 680.04 439.92ZM762.295 422.928C762.295 417.936 761.335 414.288 759.415 411.984C757.559 409.68 754.647 408.528 750.679 408.528C746.135 408.528 742.615 410.096 740.119 413.232C737.687 416.368 736.471 420.912 736.471 426.864L731.383 434.256V428.112C731.383 418.192 733.559 410.576 737.911 405.264C742.263 399.888 748.503 397.2 756.631 397.2C763.735 397.2 768.951 399.088 772.279 402.864C775.671 406.576 777.367 412.464 777.367 420.528V450H762.295V422.928ZM721.399 398.16H733.591L736.471 414.096V450H721.399V398.16ZM808.431 398.16H823.215L833.967 440.016H834.255L846.543 398.16H862.767L875.055 440.016H875.343L886.095 398.16H900.879L888.207 450H865.647L854.799 414.864H854.511L843.663 450H821.103L808.431 398.16ZM943.655 431.472V418.992C943.655 415.152 942.407 412.304 939.911 410.448C937.415 408.592 933.607 407.664 928.487 407.664C925.351 407.664 922.183 408.08 918.983 408.912C915.847 409.68 912.839 410.8 909.959 412.272L907.943 402.192C910.119 401.168 912.583 400.304 915.335 399.6C918.151 398.832 921.031 398.256 923.975 397.872C926.983 397.424 929.799 397.2 932.423 397.2C941.383 397.2 948.071 399.024 952.487 402.672C956.967 406.256 959.207 411.696 959.207 418.992V450H946.919L943.655 431.472ZM926.471 450.96C920.199 450.96 915.271 449.616 911.687 446.928C908.167 444.176 906.407 440.368 906.407 435.504V434.064C906.407 429.136 908.199 425.328 911.783 422.64C915.367 419.888 920.391 418.512 926.855 418.512C933.703 418.512 939.047 419.856 942.887 422.544C946.791 425.168 948.743 428.912 948.743 433.776V435.216C948.743 440.144 946.791 444.016 942.887 446.832C938.983 449.584 933.511 450.96 926.471 450.96ZM930.791 443.664C934.631 443.664 937.671 442.896 939.911 441.36C942.151 439.76 943.271 437.616 943.271 434.928V433.776C943.271 431.216 942.183 429.232 940.007 427.824C937.895 426.352 934.951 425.616 931.175 425.616C927.719 425.616 924.999 426.352 923.015 427.824C921.031 429.296 920.039 431.376 920.039 434.064V435.12C920.039 437.744 920.999 439.824 922.919 441.36C924.839 442.896 927.463 443.664 930.791 443.664ZM996.082 450.96C987.826 450.96 981.554 449.616 977.266 446.928C972.978 444.24 970.354 440.016 969.394 434.256L984.274 433.584C984.722 436.72 985.906 439.056 987.826 440.592C989.746 442.128 992.466 442.896 995.986 442.896C999.25 442.896 1001.78 442.32 1003.57 441.168C1005.36 439.952 1006.26 438.256 1006.26 436.08C1006.26 434.416 1005.59 433.104 1004.24 432.144C1002.96 431.12 1001.27 430.352 999.154 429.84C997.042 429.264 994.706 428.784 992.146 428.4C989.65 427.952 987.122 427.44 984.562 426.864C982.002 426.224 979.666 425.36 977.554 424.272C975.506 423.184 973.81 421.712 972.466 419.856C971.186 418 970.546 415.6 970.546 412.656C970.546 407.6 972.69 403.76 976.978 401.136C981.266 398.512 987.57 397.2 995.89 397.2C1001.2 397.2 1005.71 397.776 1009.43 398.928C1013.14 400.08 1016.05 401.84 1018.16 404.208C1020.34 406.512 1021.71 409.424 1022.29 412.944L1007.31 413.616C1006.99 410.8 1005.91 408.72 1004.05 407.376C1002.26 405.968 999.73 405.264 996.466 405.264C993.266 405.264 990.77 405.872 988.978 407.088C987.25 408.24 986.386 409.936 986.386 412.176C986.386 413.904 987.026 415.28 988.306 416.304C989.65 417.328 991.378 418.128 993.49 418.704C995.602 419.28 997.906 419.792 1000.4 420.24C1002.96 420.624 1005.52 421.104 1008.08 421.68C1010.64 422.256 1012.95 423.088 1014.99 424.176C1017.11 425.264 1018.8 426.704 1020.08 428.496C1021.43 430.288 1022.1 432.656 1022.1 435.6C1022.1 440.592 1019.89 444.4 1015.47 447.024C1011.06 449.648 1004.59 450.96 996.082 450.96ZM1061.61 397.584C1061.61 390.8 1063.31 385.616 1066.7 382.032C1070.09 378.448 1074.99 376.656 1081.39 376.656C1083.75 376.656 1086.25 376.88 1088.87 377.328C1091.5 377.712 1093.74 378.256 1095.59 378.96L1093.87 388.272C1092.71 387.824 1091.47 387.472 1090.12 387.216C1088.84 386.96 1087.59 386.832 1086.38 386.832C1083.11 386.832 1080.68 387.728 1079.08 389.52C1077.48 391.248 1076.68 393.936 1076.68 397.584V450H1061.61V397.584ZM1053.26 398.16H1089.07V408.432H1053.26V398.16ZM1122.73 450.96C1116.71 450.96 1111.5 450 1107.08 448.08C1102.66 446.096 1099.27 443.28 1096.9 439.632C1094.54 435.92 1093.35 431.568 1093.35 426.576V421.584C1093.35 416.528 1094.54 412.208 1096.9 408.624C1099.27 404.976 1102.66 402.16 1107.08 400.176C1111.5 398.192 1116.71 397.2 1122.73 397.2C1128.81 397.2 1134.06 398.192 1138.47 400.176C1142.89 402.096 1146.25 404.88 1148.55 408.528C1150.92 412.176 1152.1 416.528 1152.1 421.584V426.576C1152.1 431.632 1150.92 435.984 1148.55 439.632C1146.25 443.28 1142.89 446.096 1138.47 448.08C1134.12 450 1128.87 450.96 1122.73 450.96ZM1122.73 439.92C1127.14 439.92 1130.63 438.704 1133.19 436.272C1135.82 433.776 1137.13 430.448 1137.13 426.288V421.872C1137.13 417.648 1135.82 414.32 1133.19 411.888C1130.63 409.456 1127.14 408.24 1122.73 408.24C1118.38 408.24 1114.89 409.488 1112.26 411.984C1109.7 414.416 1108.42 417.712 1108.42 421.872V426.288C1108.42 430.448 1109.7 433.776 1112.26 436.272C1114.89 438.704 1118.38 439.92 1122.73 439.92ZM1178.39 425.328C1178.39 430.256 1179.32 433.872 1181.17 436.176C1183.03 438.48 1185.94 439.632 1189.91 439.632C1194.52 439.632 1198.04 438.064 1200.47 434.928C1202.97 431.792 1204.21 427.248 1204.21 421.296L1209.3 413.904V420.048C1209.3 429.968 1207.13 437.616 1202.77 442.992C1198.49 448.304 1192.28 450.96 1184.15 450.96C1177.05 450.96 1171.8 449.104 1168.41 445.392C1165.01 441.616 1163.32 435.728 1163.32 427.728V398.16H1178.39V425.328ZM1219.29 450H1207L1204.21 434.064V398.16H1219.29V450ZM1274.17 422.928C1274.17 417.936 1273.21 414.288 1271.29 411.984C1269.43 409.68 1266.52 408.528 1262.55 408.528C1258.01 408.528 1254.49 410.096 1251.99 413.232C1249.56 416.368 1248.35 420.912 1248.35 426.864L1243.26 434.256V428.112C1243.26 418.192 1245.43 410.576 1249.79 405.264C1254.14 399.888 1260.38 397.2 1268.51 397.2C1275.61 397.2 1280.83 399.088 1284.15 402.864C1287.55 406.576 1289.24 412.464 1289.24 420.528V450H1274.17V422.928ZM1233.27 398.16H1245.47L1248.35 414.096V450H1233.27V398.16ZM1323.67 450.96C1316.44 450.96 1310.81 448.848 1306.77 444.624C1302.74 440.4 1300.73 434.384 1300.73 426.576V421.584C1300.73 413.84 1302.74 407.856 1306.77 403.632C1310.87 399.344 1316.66 397.2 1324.15 397.2C1329.46 397.2 1334.07 398.224 1337.97 400.272C1341.94 402.32 1345.01 405.232 1347.19 409.008C1349.37 412.784 1350.45 417.264 1350.45 422.448V425.328C1350.45 430.576 1349.33 435.12 1347.09 438.96C1344.92 442.8 1341.81 445.776 1337.78 447.888C1333.81 449.936 1329.11 450.96 1323.67 450.96ZM1328.57 440.304C1333.43 440.304 1337.24 438.928 1339.99 436.176C1342.81 433.36 1344.21 429.552 1344.21 424.752V423.216C1344.21 418.48 1342.81 414.768 1339.99 412.08C1337.24 409.392 1333.43 408.048 1328.57 408.048C1324.6 408.048 1321.46 409.296 1319.16 411.792C1316.92 414.288 1315.8 417.744 1315.8 422.16V426.288C1315.8 430.64 1316.92 434.064 1319.16 436.56C1321.46 439.056 1324.6 440.304 1328.57 440.304ZM1344.21 433.872V378.96H1359.29V450H1349.69L1344.21 433.872ZM314.697 556.16H329.481L340.233 598.016H340.521L352.809 556.16H369.033L381.321 598.016H381.609L392.361 556.16H407.145L394.473 608H371.913L361.065 572.864H360.777L349.929 608H327.369L314.697 556.16ZM457.185 580.928C457.185 575.936 456.225 572.288 454.305 569.984C452.449 567.68 449.537 566.528 445.569 566.528C441.025 566.528 437.505 568.096 435.009 571.232C432.577 574.368 431.361 578.912 431.361 584.864L426.177 592.256L426.273 586.112C426.273 576.192 428.449 568.576 432.801 563.264C437.153 557.888 443.393 555.2 451.521 555.2C458.625 555.2 463.841 557.088 467.169 560.864C470.561 564.576 472.257 570.464 472.257 578.528V608H457.185V580.928ZM416.289 536.96H431.361V572.096V608H416.289V536.96ZM510.725 608.96C505.029 608.96 500.133 608 496.037 606.08C491.941 604.16 488.805 601.376 486.629 597.728C484.517 594.08 483.461 589.696 483.461 584.576V579.584C483.461 574.464 484.613 570.112 486.917 566.528C489.221 562.88 492.517 560.096 496.805 558.176C501.093 556.192 506.213 555.2 512.165 555.2C521.253 555.2 528.229 557.536 533.093 562.208C538.021 566.88 540.485 573.536 540.485 582.176V585.248H495.749V579.104H528.677L526.469 581.408V578.624C526.469 574.4 525.221 571.072 522.725 568.64C520.229 566.208 516.837 564.992 512.549 564.992C508.197 564.992 504.773 566.208 502.277 568.64C499.781 571.072 498.533 574.4 498.533 578.624V586.208C498.533 590.624 499.717 594.016 502.085 596.384C504.453 598.688 507.749 599.84 511.973 599.84C515.685 599.84 518.693 599.072 520.997 597.536C523.301 595.936 524.773 593.792 525.413 591.104L539.813 592.064C538.213 597.504 534.885 601.696 529.829 604.64C524.773 607.52 518.405 608.96 510.725 608.96ZM551.758 556.16H563.95L566.83 576.704V608H551.758V556.16ZM563.566 581.984C563.566 573.152 565.102 566.496 568.174 562.016C571.246 557.472 575.79 555.2 581.806 555.2C582.958 555.2 584.078 555.296 585.166 555.488C586.318 555.616 587.438 555.808 588.526 556.064L587.662 568.64C585.614 568.128 583.406 567.872 581.038 567.872C576.302 567.872 572.75 569.376 570.382 572.384C568.014 575.328 566.83 579.776 566.83 585.728L563.566 581.984ZM620.037 608.96C614.341 608.96 609.445 608 605.349 606.08C601.253 604.16 598.117 601.376 595.941 597.728C593.829 594.08 592.773 589.696 592.773 584.576V579.584C592.773 574.464 593.925 570.112 596.229 566.528C598.533 562.88 601.829 560.096 606.117 558.176C610.405 556.192 615.525 555.2 621.477 555.2C630.565 555.2 637.541 557.536 642.405 562.208C647.333 566.88 649.797 573.536 649.797 582.176V585.248H605.061V579.104H637.989L635.781 581.408V578.624C635.781 574.4 634.533 571.072 632.037 568.64C629.541 566.208 626.149 564.992 621.861 564.992C617.509 564.992 614.085 566.208 611.589 568.64C609.093 571.072 607.845 574.4 607.845 578.624V586.208C607.845 590.624 609.029 594.016 611.397 596.384C613.765 598.688 617.061 599.84 621.285 599.84C624.997 599.84 628.005 599.072 630.309 597.536C632.613 595.936 634.085 593.792 634.725 591.104L649.125 592.064C647.525 597.504 644.197 601.696 639.141 604.64C634.085 607.52 627.717 608.96 620.037 608.96ZM710.097 608.96C701.841 608.96 695.569 607.616 691.281 604.928C686.993 602.24 684.369 598.016 683.409 592.256L698.289 591.584C698.737 594.72 699.921 597.056 701.841 598.592C703.761 600.128 706.481 600.896 710.001 600.896C713.265 600.896 715.793 600.32 717.585 599.168C719.377 597.952 720.273 596.256 720.273 594.08C720.273 592.416 719.601 591.104 718.257 590.144C716.977 589.12 715.281 588.352 713.169 587.84C711.057 587.264 708.721 586.784 706.161 586.4C703.665 585.952 701.137 585.44 698.577 584.864C696.017 584.224 693.681 583.36 691.569 582.272C689.521 581.184 687.825 579.712 686.481 577.856C685.201 576 684.561 573.6 684.561 570.656C684.561 565.6 686.705 561.76 690.993 559.136C695.281 556.512 701.585 555.2 709.905 555.2C715.217 555.2 719.729 555.776 723.441 556.928C727.153 558.08 730.065 559.84 732.177 562.208C734.353 564.512 735.729 567.424 736.305 570.944L721.329 571.616C721.009 568.8 719.921 566.72 718.065 565.376C716.273 563.968 713.745 563.264 710.481 563.264C707.281 563.264 704.785 563.872 702.993 565.088C701.265 566.24 700.401 567.936 700.401 570.176C700.401 571.904 701.041 573.28 702.321 574.304C703.665 575.328 705.393 576.128 707.505 576.704C709.617 577.28 711.921 577.792 714.417 578.24C716.977 578.624 719.537 579.104 722.097 579.68C724.657 580.256 726.961 581.088 729.009 582.176C731.121 583.264 732.817 584.704 734.097 586.496C735.441 588.288 736.113 590.656 736.113 593.6C736.113 598.592 733.905 602.4 729.489 605.024C725.073 607.648 718.609 608.96 710.097 608.96ZM766.623 608.96C760.991 608.96 756.863 607.552 754.239 604.736C751.679 601.92 750.399 597.568 750.399 591.68V558.56L754.719 543.776H765.471V588.512C765.471 591.776 766.111 594.144 767.391 595.616C768.735 597.088 770.879 597.824 773.823 597.824C775.103 597.824 776.383 597.696 777.663 597.44C778.943 597.184 780.159 596.8 781.311 596.288L782.943 605.504C781.535 606.208 779.903 606.816 778.047 607.328C776.255 607.84 774.367 608.224 772.383 608.48C770.463 608.8 768.543 608.96 766.623 608.96ZM741.375 556.16H779.487V566.432H741.375V556.16ZM790.821 556.16H803.013L805.893 576.704V608H790.821V556.16ZM802.629 581.984C802.629 573.152 804.165 566.496 807.237 562.016C810.309 557.472 814.853 555.2 820.869 555.2C822.021 555.2 823.141 555.296 824.229 555.488C825.381 555.616 826.501 555.808 827.589 556.064L826.725 568.64C824.677 568.128 822.469 567.872 820.101 567.872C815.365 567.872 811.813 569.376 809.445 572.384C807.077 575.328 805.893 579.776 805.893 585.728L802.629 581.984ZM849.468 583.328C849.468 588.256 850.396 591.872 852.252 594.176C854.108 596.48 857.02 597.632 860.988 597.632C865.596 597.632 869.116 596.064 871.548 592.928C874.044 589.792 875.292 585.248 875.292 579.296L880.38 571.904V578.048C880.38 587.968 878.204 595.616 873.852 600.992C869.564 606.304 863.356 608.96 855.228 608.96C848.124 608.96 842.876 607.104 839.484 603.392C836.092 599.616 834.396 593.728 834.396 585.728V556.16H849.468V583.328ZM890.364 608H878.076L875.292 592.064V556.16H890.364V608ZM930.176 608.96C924.416 608.96 919.456 608 915.296 606.08C911.136 604.096 907.936 601.28 905.696 597.632C903.456 593.92 902.336 589.568 902.336 584.576V579.584C902.336 574.528 903.456 570.208 905.696 566.624C907.936 562.976 911.136 560.16 915.296 558.176C919.456 556.192 924.416 555.2 930.176 555.2C938.752 555.2 945.568 557.024 950.624 560.672C955.68 564.32 958.56 569.28 959.264 575.552L944.864 576.608C944.288 573.024 942.816 570.24 940.448 568.256C938.08 566.272 934.944 565.28 931.04 565.28C926.88 565.28 923.552 566.56 921.056 569.12C918.624 571.616 917.408 575.04 917.408 579.392V584.768C917.408 589.056 918.624 592.48 921.056 595.04C923.552 597.6 926.88 598.88 931.04 598.88C934.944 598.88 938.08 597.888 940.448 595.904C942.816 593.856 944.288 591.072 944.864 587.552L959.264 588.608C958.56 594.88 955.68 599.84 950.624 603.488C945.568 607.136 938.752 608.96 930.176 608.96ZM988.998 608.96C983.366 608.96 979.238 607.552 976.614 604.736C974.054 601.92 972.774 597.568 972.774 591.68V558.56L977.094 543.776H987.846V588.512C987.846 591.776 988.486 594.144 989.766 595.616C991.11 597.088 993.254 597.824 996.198 597.824C997.478 597.824 998.758 597.696 1000.04 597.44C1001.32 597.184 1002.53 596.8 1003.69 596.288L1005.32 605.504C1003.91 606.208 1002.28 606.816 1000.42 607.328C998.63 607.84 996.742 608.224 994.758 608.48C992.838 608.8 990.918 608.96 988.998 608.96ZM963.75 556.16H1001.86V566.432H963.75V556.16ZM1026.47 583.328C1026.47 588.256 1027.4 591.872 1029.25 594.176C1031.11 596.48 1034.02 597.632 1037.99 597.632C1042.6 597.632 1046.12 596.064 1048.55 592.928C1051.04 589.792 1052.29 585.248 1052.29 579.296L1057.38 571.904V578.048C1057.38 587.968 1055.2 595.616 1050.85 600.992C1046.56 606.304 1040.36 608.96 1032.23 608.96C1025.12 608.96 1019.88 607.104 1016.48 603.392C1013.09 599.616 1011.4 593.728 1011.4 585.728V556.16H1026.47V583.328ZM1067.36 608H1055.08L1052.29 592.064V556.16H1067.36V608ZM1081.35 556.16H1093.54L1096.42 576.704V608H1081.35V556.16ZM1093.16 581.984C1093.16 573.152 1094.7 566.496 1097.77 562.016C1100.84 557.472 1105.38 555.2 1111.4 555.2C1112.55 555.2 1113.67 555.296 1114.76 555.488C1115.91 555.616 1117.03 555.808 1118.12 556.064L1117.26 568.64C1115.21 568.128 1113 567.872 1110.63 567.872C1105.9 567.872 1102.34 569.376 1099.98 572.384C1097.61 575.328 1096.42 579.776 1096.42 585.728L1093.16 581.984ZM1149.63 608.96C1143.94 608.96 1139.04 608 1134.94 606.08C1130.85 604.16 1127.71 601.376 1125.54 597.728C1123.42 594.08 1122.37 589.696 1122.37 584.576V579.584C1122.37 574.464 1123.52 570.112 1125.82 566.528C1128.13 562.88 1131.42 560.096 1135.71 558.176C1140 556.192 1145.12 555.2 1151.07 555.2C1160.16 555.2 1167.14 557.536 1172 562.208C1176.93 566.88 1179.39 573.536 1179.39 582.176V585.248H1134.66V579.104H1167.58L1165.38 581.408V578.624C1165.38 574.4 1164.13 571.072 1161.63 568.64C1159.14 566.208 1155.74 564.992 1151.46 564.992C1147.1 564.992 1143.68 566.208 1141.18 568.64C1138.69 571.072 1137.44 574.4 1137.44 578.624V586.208C1137.44 590.624 1138.62 594.016 1140.99 596.384C1143.36 598.688 1146.66 599.84 1150.88 599.84C1154.59 599.84 1157.6 599.072 1159.9 597.536C1162.21 595.936 1163.68 593.792 1164.32 591.104L1178.72 592.064C1177.12 597.504 1173.79 601.696 1168.74 604.64C1163.68 607.52 1157.31 608.96 1149.63 608.96ZM1250.83 589.472V576.992C1250.83 573.152 1249.58 570.304 1247.08 568.448C1244.59 566.592 1240.78 565.664 1235.66 565.664C1232.52 565.664 1229.36 566.08 1226.16 566.912C1223.02 567.68 1220.01 568.8 1217.13 570.272L1215.12 560.192C1217.29 559.168 1219.76 558.304 1222.51 557.6C1225.32 556.832 1228.2 556.256 1231.15 555.872C1234.16 555.424 1236.97 555.2 1239.6 555.2C1248.56 555.2 1255.24 557.024 1259.66 560.672C1264.14 564.256 1266.38 569.696 1266.38 576.992V608H1254.09L1250.83 589.472ZM1233.64 608.96C1227.37 608.96 1222.44 607.616 1218.86 604.928C1215.34 602.176 1213.58 598.368 1213.58 593.504V592.064C1213.58 587.136 1215.37 583.328 1218.96 580.64C1222.54 577.888 1227.56 576.512 1234.03 576.512C1240.88 576.512 1246.22 577.856 1250.06 580.544C1253.96 583.168 1255.92 586.912 1255.92 591.776V593.216C1255.92 598.144 1253.96 602.016 1250.06 604.832C1246.16 607.584 1240.68 608.96 1233.64 608.96ZM1237.96 601.664C1241.8 601.664 1244.84 600.896 1247.08 599.36C1249.32 597.76 1250.44 595.616 1250.44 592.928V591.776C1250.44 589.216 1249.36 587.232 1247.18 585.824C1245.07 584.352 1242.12 583.616 1238.35 583.616C1234.89 583.616 1232.17 584.352 1230.19 585.824C1228.2 587.296 1227.21 589.376 1227.21 592.064V593.12C1227.21 595.744 1228.17 597.824 1230.09 599.36C1232.01 600.896 1234.64 601.664 1237.96 601.664ZM1320.53 580.928C1320.53 575.936 1319.57 572.288 1317.65 569.984C1315.79 567.68 1312.88 566.528 1308.91 566.528C1304.37 566.528 1300.85 568.096 1298.35 571.232C1295.92 574.368 1294.71 578.912 1294.71 584.864L1289.62 592.256V586.112C1289.62 576.192 1291.79 568.576 1296.15 563.264C1300.5 557.888 1306.74 555.2 1314.87 555.2C1321.97 555.2 1327.19 557.088 1330.51 560.864C1333.91 564.576 1335.6 570.464 1335.6 578.528V608H1320.53V580.928ZM1279.63 556.16H1291.83L1294.71 572.096V608H1279.63V556.16ZM1370.03 608.96C1362.8 608.96 1357.17 606.848 1353.13 602.624C1349.1 598.4 1347.09 592.384 1347.09 584.576V579.584C1347.09 571.84 1349.1 565.856 1353.13 561.632C1357.23 557.344 1363.02 555.2 1370.51 555.2C1375.82 555.2 1380.43 556.224 1384.33 558.272C1388.3 560.32 1391.37 563.232 1393.55 567.008C1395.73 570.784 1396.81 575.264 1396.81 580.448V583.328C1396.81 588.576 1395.69 593.12 1393.45 596.96C1391.28 600.8 1388.17 603.776 1384.14 605.888C1380.17 607.936 1375.47 608.96 1370.03 608.96ZM1374.93 598.304C1379.79 598.304 1383.6 596.928 1386.35 594.176C1389.17 591.36 1390.57 587.552 1390.57 582.752V581.216C1390.57 576.48 1389.17 572.768 1386.35 570.08C1383.6 567.392 1379.79 566.048 1374.93 566.048C1370.96 566.048 1367.82 567.296 1365.52 569.792C1363.28 572.288 1362.16 575.744 1362.16 580.16V584.288C1362.16 588.64 1363.28 592.064 1365.52 594.56C1367.82 597.056 1370.96 598.304 1374.93 598.304ZM1390.57 591.872V536.96H1405.65V608H1396.05L1390.57 591.872ZM523.629 766.96C517.869 766.96 512.909 766 508.749 764.08C504.589 762.096 501.389 759.28 499.149 755.632C496.909 751.92 495.789 747.568 495.789 742.576V737.584C495.789 732.528 496.909 728.208 499.149 724.624C501.389 720.976 504.589 718.16 508.749 716.176C512.909 714.192 517.869 713.2 523.629 713.2C532.205 713.2 539.021 715.024 544.077 718.672C549.133 722.32 552.013 727.28 552.717 733.552L538.317 734.608C537.741 731.024 536.269 728.24 533.901 726.256C531.533 724.272 528.397 723.28 524.493 723.28C520.333 723.28 517.005 724.56 514.509 727.12C512.077 729.616 510.861 733.04 510.861 737.392V742.768C510.861 747.056 512.077 750.48 514.509 753.04C517.005 755.6 520.333 756.88 524.493 756.88C528.397 756.88 531.533 755.888 533.901 753.904C536.269 751.856 537.741 749.072 538.317 745.552L552.717 746.608C552.013 752.88 549.133 757.84 544.077 761.488C539.021 765.136 532.205 766.96 523.629 766.96ZM563.149 714.16H575.341L578.221 734.704V766H563.149V714.16ZM574.957 739.984C574.957 731.152 576.493 724.496 579.565 720.016C582.637 715.472 587.181 713.2 593.197 713.2C594.349 713.2 595.469 713.296 596.557 713.488C597.709 713.616 598.829 713.808 599.917 714.064L599.053 726.64C597.005 726.128 594.797 725.872 592.429 725.872C587.693 725.872 584.141 727.376 581.773 730.384C579.405 733.328 578.221 737.776 578.221 743.728L574.957 739.984ZM631.428 766.96C625.732 766.96 620.836 766 616.74 764.08C612.644 762.16 609.508 759.376 607.332 755.728C605.22 752.08 604.164 747.696 604.164 742.576V737.584C604.164 732.464 605.316 728.112 607.62 724.528C609.924 720.88 613.22 718.096 617.508 716.176C621.796 714.192 626.916 713.2 632.868 713.2C641.956 713.2 648.932 715.536 653.796 720.208C658.724 724.88 661.188 731.536 661.188 740.176V743.248H616.452V737.104H649.38L647.172 739.408V736.624C647.172 732.4 645.924 729.072 643.428 726.64C640.932 724.208 637.54 722.992 633.252 722.992C628.9 722.992 625.476 724.208 622.98 726.64C620.484 729.072 619.236 732.4 619.236 736.624V744.208C619.236 748.624 620.42 752.016 622.788 754.384C625.156 756.688 628.452 757.84 632.676 757.84C636.388 757.84 639.396 757.072 641.7 755.536C644.004 753.936 645.476 751.792 646.116 749.104L660.516 750.064C658.916 755.504 655.588 759.696 650.532 762.64C645.476 765.52 639.108 766.96 631.428 766.96ZM707.124 747.472V734.992C707.124 731.152 705.876 728.304 703.38 726.448C700.884 724.592 697.076 723.664 691.956 723.664C688.82 723.664 685.652 724.08 682.452 724.912C679.316 725.68 676.308 726.8 673.428 728.272L671.412 718.192C673.588 717.168 676.052 716.304 678.804 715.6C681.62 714.832 684.5 714.256 687.444 713.872C690.452 713.424 693.268 713.2 695.892 713.2C704.852 713.2 711.54 715.024 715.956 718.672C720.436 722.256 722.676 727.696 722.676 734.992V766H710.388L707.124 747.472ZM689.94 766.96C683.668 766.96 678.74 765.616 675.156 762.928C671.636 760.176 669.876 756.368 669.876 751.504V750.064C669.876 745.136 671.668 741.328 675.252 738.64C678.836 735.888 683.86 734.512 690.324 734.512C697.172 734.512 702.516 735.856 706.356 738.544C710.26 741.168 712.212 744.912 712.212 749.776V751.216C712.212 756.144 710.26 760.016 706.356 762.832C702.452 765.584 696.98 766.96 689.94 766.96ZM694.26 759.664C698.1 759.664 701.14 758.896 703.38 757.36C705.62 755.76 706.74 753.616 706.74 750.928V749.776C706.74 747.216 705.652 745.232 703.476 743.824C701.364 742.352 698.42 741.616 694.644 741.616C691.188 741.616 688.468 742.352 686.484 743.824C684.5 745.296 683.508 747.376 683.508 750.064V751.12C683.508 753.744 684.468 755.824 686.388 757.36C688.308 758.896 690.932 759.664 694.26 759.664ZM755.139 766.96C749.507 766.96 745.379 765.552 742.755 762.736C740.195 759.92 738.915 755.568 738.915 749.68V716.56L743.235 701.776H753.987V746.512C753.987 749.776 754.627 752.144 755.907 753.616C757.251 755.088 759.395 755.824 762.339 755.824C763.619 755.824 764.899 755.696 766.179 755.44C767.459 755.184 768.675 754.8 769.827 754.288L771.459 763.504C770.051 764.208 768.419 764.816 766.563 765.328C764.771 765.84 762.883 766.224 760.899 766.48C758.979 766.8 757.059 766.96 755.139 766.96ZM729.891 714.16H768.003V724.432H729.891V714.16ZM794.502 714.16V766H779.43V714.16H794.502ZM795.078 693.616V707.728H778.854V693.616H795.078ZM802.156 714.16H817.132L831.436 758.8H831.724L845.932 714.16H860.908L844.588 766H818.476L802.156 714.16ZM883.752 714.16V766H868.68V714.16H883.752ZM884.328 693.616V707.728H868.104V693.616H884.328ZM917.42 766.96C911.788 766.96 907.66 765.552 905.036 762.736C902.476 759.92 901.196 755.568 901.196 749.68V716.56L905.516 701.776H916.268V746.512C916.268 749.776 916.908 752.144 918.188 753.616C919.532 755.088 921.676 755.824 924.62 755.824C925.9 755.824 927.18 755.696 928.46 755.44C929.74 755.184 930.956 754.8 932.108 754.288L933.74 763.504C932.332 764.208 930.7 764.816 928.844 765.328C927.052 765.84 925.164 766.224 923.18 766.48C921.26 766.8 919.34 766.96 917.42 766.96ZM892.172 714.16H930.284V724.432H892.172V714.16ZM950.463 781.552L958.815 761.776L957.471 769.36L934.719 714.16H949.887L964.479 751.504H964.767L978.591 714.16H993.663L965.631 784.336L950.463 781.552ZM1106.06 738.832C1106.06 733.904 1105.16 730.288 1103.37 727.984C1101.58 725.68 1098.76 724.528 1094.92 724.528C1090.44 724.528 1086.99 726.096 1084.56 729.232C1082.19 732.368 1081 736.912 1081 742.864L1075.92 750.256V744.112C1075.92 734.192 1078.06 726.576 1082.35 721.264C1086.7 715.888 1092.91 713.2 1100.97 713.2C1107.88 713.2 1112.97 715.088 1116.24 718.864C1119.5 722.576 1121.13 728.432 1121.13 736.432V766H1106.06V738.832ZM1025.8 714.16H1038L1040.88 730.288V766H1025.8V714.16ZM1065.93 738.832C1065.93 733.904 1065.04 730.288 1063.24 727.984C1061.45 725.68 1058.64 724.528 1054.8 724.528C1050.32 724.528 1046.86 726.096 1044.43 729.232C1042.06 732.368 1040.88 736.912 1040.88 742.864L1035.79 750.256V744.112C1035.79 734.192 1037.93 726.576 1042.22 721.264C1046.57 715.888 1052.75 713.2 1060.75 713.2C1067.72 713.2 1072.84 715.088 1076.11 718.864C1079.37 722.64 1081 728.496 1081 736.432V766H1065.93V738.832ZM1159.62 766.96C1153.92 766.96 1149.02 766 1144.93 764.08C1140.83 762.16 1137.7 759.376 1135.52 755.728C1133.41 752.08 1132.35 747.696 1132.35 742.576V737.584C1132.35 732.464 1133.5 728.112 1135.81 724.528C1138.11 720.88 1141.41 718.096 1145.7 716.176C1149.98 714.192 1155.1 713.2 1161.06 713.2C1170.14 713.2 1177.12 715.536 1181.98 720.208C1186.91 724.88 1189.38 731.536 1189.38 740.176V743.248H1144.64V737.104H1177.57L1175.36 739.408V736.624C1175.36 732.4 1174.11 729.072 1171.62 726.64C1169.12 724.208 1165.73 722.992 1161.44 722.992C1157.09 722.992 1153.66 724.208 1151.17 726.64C1148.67 729.072 1147.42 732.4 1147.42 736.624V744.208C1147.42 748.624 1148.61 752.016 1150.98 754.384C1153.34 756.688 1156.64 757.84 1160.86 757.84C1164.58 757.84 1167.58 757.072 1169.89 755.536C1172.19 753.936 1173.66 751.792 1174.3 749.104L1188.7 750.064C1187.1 755.504 1183.78 759.696 1178.72 762.64C1173.66 765.52 1167.3 766.96 1159.62 766.96ZM1220.33 766.96C1214.69 766.96 1210.57 765.552 1207.94 762.736C1205.38 759.92 1204.1 755.568 1204.1 749.68V716.56L1208.42 701.776H1219.17V746.512C1219.17 749.776 1219.81 752.144 1221.09 753.616C1222.44 755.088 1224.58 755.824 1227.53 755.824C1228.81 755.824 1230.09 755.696 1231.37 755.44C1232.65 755.184 1233.86 754.8 1235.01 754.288L1236.65 763.504C1235.24 764.208 1233.61 764.816 1231.75 765.328C1229.96 765.84 1228.07 766.224 1226.09 766.48C1224.17 766.8 1222.25 766.96 1220.33 766.96ZM1195.08 714.16H1233.19V724.432H1195.08V714.16Z" fill="white"/>
</g>
<defs>
<clipPath id="clip0_16_12">
<rect width="1728" height="1117" fill="white"/>
</clipPath>
</defs>
</svg>
