<svg width="1430" height="563" viewBox="0 0 1430 563" fill="none" xmlns="http://www.w3.org/2000/svg">
<path d="M117.875 334V159.75H208.875V187.25H149.875V233H201.375V261H149.875V334H117.875ZM340.543 334V159.75H372.543V334H340.543ZM544.42 334V188H504.17V159.75H616.92V188H576.67V334H544.42Z" fill="white"/>
<path d="M82.25 562.5C67.5 562.5 54.6667 558.833 43.75 551.5C32.8333 544.167 24.3333 533.542 18.25 519.625C12.25 505.708 9.25 488.917 9.25 469.25C9.25 452 12.5417 436.75 19.125 423.5C25.7083 410.167 34.7917 399.708 46.375 392.125C58.0417 384.542 71.4167 380.75 86.5 380.75C97.5 380.75 106.292 381.625 112.875 383.375C119.542 385.042 124.708 387.083 128.375 389.5C132.125 391.917 135.083 394.167 137.25 396.25L123.5 424C122.25 422.333 120.292 420.417 117.625 418.25C114.958 416.083 111.167 414.208 106.25 412.625C101.333 411.042 94.9167 410.25 87 410.25C78.5833 410.25 71.0417 412.708 64.375 417.625C57.7083 422.542 52.4167 429.375 48.5 438.125C44.6667 446.875 42.75 457 42.75 468.5C42.75 489.333 46.4167 505.542 53.75 517.125C61.0833 528.708 70.75 534.5 82.75 534.5C95.6667 534.5 104.792 531.458 110.125 525.375C115.542 519.208 118.25 510.333 118.25 498.75C118.25 496.75 118.167 494.5 118 492H82.25V464.5H147.5C147.917 468.333 148.25 472.458 148.5 476.875C148.833 481.292 149 485.25 149 488.75C149 498.167 148.083 507.292 146.25 516.125C144.417 524.958 141.083 532.875 136.25 539.875C131.417 546.792 124.625 552.292 115.875 556.375C107.208 560.458 96 562.5 82.25 562.5ZM292.227 561C276.477 561 263.185 557.292 252.352 549.875C241.602 542.375 233.435 531.875 227.852 518.375C222.268 504.875 219.477 489 219.477 470.75C219.477 452.667 222.227 436.875 227.727 423.375C233.227 409.875 241.31 399.417 251.977 392C262.727 384.5 275.893 380.75 291.477 380.75C307.727 380.75 321.227 384.542 331.977 392.125C342.81 399.708 350.935 410.25 356.352 423.75C361.768 437.25 364.477 452.917 364.477 470.75C364.477 489 361.685 504.875 356.102 518.375C350.518 531.875 342.352 542.375 331.602 549.875C320.852 557.292 307.727 561 292.227 561ZM292.227 534.25C303.143 534.25 312.352 529 319.852 518.5C327.435 507.917 331.227 491.75 331.227 470C331.227 449.083 327.685 433.333 320.602 422.75C313.602 412.083 303.893 406.75 291.477 406.75C279.393 406.75 269.935 412.083 263.102 422.75C256.352 433.417 252.977 449.25 252.977 470.25C252.977 492 256.56 508.125 263.727 518.625C270.977 529.042 280.477 534.25 292.227 534.25ZM446.051 558V383.75H491.051C516.301 383.75 535.759 390.833 549.426 405C563.176 419.083 570.051 440.333 570.051 468.75C570.051 486.917 567.009 502.708 560.926 516.125C554.842 529.458 545.884 539.792 534.051 547.125C522.301 554.375 507.884 558 490.801 558H446.051ZM490.051 408.75H478.301V530.5H490.051C499.217 530.5 506.842 528.792 512.926 525.375C519.009 521.875 523.842 517.25 527.426 511.5C531.092 505.667 533.676 499.125 535.176 491.875C536.759 484.542 537.551 477.083 537.551 469.5C537.551 459 536.092 449.125 533.176 439.875C530.259 430.625 525.342 423.125 518.426 417.375C511.509 411.625 502.051 408.75 490.051 408.75ZM649.43 558V383.75H694.43C719.68 383.75 739.138 390.833 752.805 405C766.555 419.083 773.43 440.333 773.43 468.75C773.43 486.917 770.388 502.708 764.305 516.125C758.221 529.458 749.263 539.792 737.43 547.125C725.68 554.375 711.263 558 694.18 558H649.43ZM693.43 408.75H681.68V530.5H693.43C702.596 530.5 710.221 528.792 716.305 525.375C722.388 521.875 727.221 517.25 730.805 511.5C734.471 505.667 737.055 499.125 738.555 491.875C740.138 484.542 740.93 477.083 740.93 469.5C740.93 459 739.471 449.125 736.555 439.875C733.638 430.625 728.721 423.125 721.805 417.375C714.888 411.625 705.43 408.75 693.43 408.75ZM852.809 558V383.75H943.809V411H884.059V451.75H931.559V478.25H884.059V529.75H948.809V558H852.809ZM1071.3 560.75C1059.05 560.75 1048.34 558.708 1039.18 554.625C1030.01 550.542 1023.3 546.25 1019.05 541.75L1031.8 515.5C1033.55 517.75 1036.3 520.292 1040.05 523.125C1043.89 525.958 1048.3 528.458 1053.3 530.625C1058.39 532.708 1063.64 533.75 1069.05 533.75C1075.3 533.75 1080.72 532 1085.3 528.5C1089.97 525 1092.3 519.833 1092.3 513C1092.3 506.25 1089.89 500.917 1085.05 497C1080.3 493 1073.8 488.5 1065.55 483.5C1058.8 479.417 1052.18 475.083 1045.68 470.5C1039.18 465.833 1033.76 460.167 1029.43 453.5C1025.18 446.75 1023.05 438.25 1023.05 428C1023.05 414.25 1027.43 402.958 1036.18 394.125C1045.01 385.208 1057.8 380.75 1074.55 380.75C1083.05 380.75 1090.26 381.75 1096.18 383.75C1102.18 385.75 1107.01 388.042 1110.68 390.625C1114.43 393.208 1117.22 395.333 1119.05 397L1105.05 422.5C1103.89 420.833 1101.93 418.792 1099.18 416.375C1096.43 413.958 1093.05 411.833 1089.05 410C1085.05 408.167 1080.64 407.25 1075.8 407.25C1069.05 407.25 1063.97 409.208 1060.55 413.125C1057.22 416.958 1055.55 421.5 1055.55 426.75C1055.55 433.5 1058.01 439 1062.93 443.25C1067.93 447.5 1073.97 451.75 1081.05 456C1088.89 460.667 1096.14 465.375 1102.8 470.125C1109.47 474.792 1114.84 480.417 1118.93 487C1123.01 493.5 1125.05 501.833 1125.05 512C1125.05 527.25 1120.26 539.208 1110.68 547.875C1101.09 556.458 1087.97 560.75 1071.3 560.75ZM1247.34 560.75C1235.09 560.75 1224.38 558.708 1215.21 554.625C1206.05 550.542 1199.34 546.25 1195.09 541.75L1207.84 515.5C1209.59 517.75 1212.34 520.292 1216.09 523.125C1219.92 525.958 1224.34 528.458 1229.34 530.625C1234.42 532.708 1239.67 533.75 1245.09 533.75C1251.34 533.75 1256.75 532 1261.34 528.5C1266 525 1268.34 519.833 1268.34 513C1268.34 506.25 1265.92 500.917 1261.09 497C1256.34 493 1249.84 488.5 1241.59 483.5C1234.84 479.417 1228.21 475.083 1221.71 470.5C1215.21 465.833 1209.8 460.167 1205.46 453.5C1201.21 446.75 1199.09 438.25 1199.09 428C1199.09 414.25 1203.46 402.958 1212.21 394.125C1221.05 385.208 1233.84 380.75 1250.59 380.75C1259.09 380.75 1266.3 381.75 1272.21 383.75C1278.21 385.75 1283.05 388.042 1286.71 390.625C1290.46 393.208 1293.25 395.333 1295.09 397L1281.09 422.5C1279.92 420.833 1277.96 418.792 1275.21 416.375C1272.46 413.958 1269.09 411.833 1265.09 410C1261.09 408.167 1256.67 407.25 1251.84 407.25C1245.09 407.25 1240 409.208 1236.59 413.125C1233.25 416.958 1231.59 421.5 1231.59 426.75C1231.59 433.5 1234.05 439 1238.96 443.25C1243.96 447.5 1250 451.75 1257.09 456C1264.92 460.667 1272.17 465.375 1278.84 470.125C1285.5 474.792 1290.88 480.417 1294.96 487C1299.05 493.5 1301.09 501.833 1301.09 512C1301.09 527.25 1296.3 539.208 1286.71 547.875C1277.13 556.458 1264 560.75 1247.34 560.75Z" fill="white"/>
<path d="M740.2 415.1C733.2 414.633 727.833 411.833 724.1 406.7C720.367 401.8 717.8 395.85 716.4 388.85C715 382.083 714.3 375.783 714.3 369.95C714.3 336.817 724.683 293.533 745.45 240.1C773.45 169.4 802.617 123.2 832.95 101.5C842.983 94.2667 852.2 90.65 860.6 90.65C871.567 90.65 877.05 95.6667 877.05 105.7C877.05 134.167 838.433 184.1 761.2 255.5H761.55C738.683 313.833 727.25 357.583 727.25 386.75C727.25 395.383 728.533 401.683 731.1 405.65C733.667 409.617 737.4 411.6 742.3 411.6C748.833 411.6 754.667 408.333 759.8 401.8C764.933 395.267 769.25 386.983 772.75 376.95C776.25 366.917 778.583 356.767 779.75 346.5C779.983 344.867 780.1 343.233 780.1 341.6C780.1 340.2 780.1 338.683 780.1 337.05C780.1 328.883 779.167 321.533 777.3 315C775.667 308.7 773.217 304.383 769.95 302.05C758.517 301.817 752.8 298.783 752.8 292.95C752.8 290.15 754.433 288.75 757.7 288.75C763.067 288.75 767.85 292.367 772.05 299.6C780.683 300.067 788.033 299.017 794.1 296.45C800.167 293.883 806.117 289.917 811.95 284.55C817.317 279.883 822.217 274.283 826.65 267.75C831.083 260.983 834.467 255.033 836.8 249.9C837.967 248.033 838.783 247.1 839.25 247.1C839.717 247.1 839.95 247.45 839.95 248.15C839.95 249.083 839.717 250.017 839.25 250.95C830.617 268.217 820.933 281.283 810.2 290.15C799.467 298.783 787.567 302.867 774.5 302.4C777.3 305.433 779.517 310.1 781.15 316.4C782.783 322.7 783.6 329.7 783.6 337.4C783.6 346.033 782.55 354.9 780.45 364C778.35 373.333 775.433 381.85 771.7 389.55C767.967 397.483 763.417 403.783 758.05 408.45C752.683 413.117 746.733 415.333 740.2 415.1ZM764 249.55C837.033 180.95 873.55 132.767 873.55 105C873.55 97.3 870.05 93.45 863.05 93.45C846.717 93.45 827 115.383 803.9 159.25C788.5 187.95 775.2 218.05 764 249.55ZM864.319 311.15C854.052 311.15 846.235 306.717 840.869 297.85C835.969 290.383 833.519 281.283 833.519 270.55C833.519 252.117 839.352 234.967 851.019 219.1C863.852 201.833 879.252 193.2 897.219 193.2C906.319 193.2 913.319 196.35 918.219 202.65C922.885 208.717 925.219 216.417 925.219 225.75C925.219 229.95 924.752 234.267 923.819 238.7C923.119 243.133 921.952 247.8 920.319 252.7C916.819 262.967 912.502 271.017 907.369 276.85L908.069 277.9C910.402 279.533 913.202 280.35 916.469 280.35C923.235 280.35 928.952 278.133 933.619 273.7C938.285 269.267 943.535 261.333 949.369 249.9C949.602 248.967 950.069 248.5 950.769 248.5C951.235 248.5 951.585 248.85 951.819 249.55C952.052 250.017 951.935 250.717 951.469 251.65C946.569 261.917 941.319 269.733 935.719 275.1C930.352 280.467 924.052 283.15 916.819 283.15C912.152 283.15 908.535 281.867 905.969 279.3C903.635 283.5 901.069 287.467 898.269 291.2C895.469 294.7 892.319 297.85 888.819 300.65C880.885 307.65 872.719 311.15 864.319 311.15ZM866.769 308.35C879.135 308.35 891.269 298.9 903.169 280C903.169 279.3 903.519 278.6 904.219 277.9C900.019 270.9 897.919 264.25 897.919 257.95C897.919 257.717 897.919 257.25 897.919 256.55C897.919 255.617 898.035 254.45 898.269 253.05C898.502 250.483 898.969 247.917 899.669 245.35C900.369 242.55 901.535 239.983 903.169 237.65C906.669 232.05 910.869 229.25 915.769 229.25H918.919C919.852 229.483 920.552 229.6 921.019 229.6C921.485 229.6 921.835 229.6 922.069 229.6C922.069 208.6 915.419 198.1 902.119 198.1C890.919 198.1 880.302 204.867 870.269 218.4C862.102 229.133 856.269 241.15 852.769 254.45C850.669 261.683 849.619 269.267 849.619 277.2C849.619 297.967 855.335 308.35 866.769 308.35ZM983.404 309.4C969.404 309.4 962.404 303.217 962.404 290.85C962.404 281.05 966.254 269.85 973.954 257.25C976.52 252.817 983.637 242.9 995.304 227.5C1003 217.233 1006.85 210 1006.85 205.8C1006.85 201.833 1003.59 199.85 997.054 199.85C992.62 199.85 987.72 199.967 982.354 200.2C977.22 200.433 973.02 200.667 969.754 200.9C969.054 204.633 968.004 208.95 966.604 213.85C965.204 218.75 963.57 223.883 961.704 229.25C960.537 232.517 958.67 236.95 956.104 242.55C953.77 248.15 950.62 254.1 946.654 260.4C945.954 261.333 945.37 261.8 944.904 261.8C944.67 261.8 944.554 261.567 944.554 261.1C944.554 259.933 945.02 258.417 945.954 256.55C947.82 253.283 949.92 249.317 952.254 244.65C954.587 239.75 956.804 234.383 958.904 228.55C960.77 223.417 962.404 218.05 963.804 212.45C965.437 206.617 966.37 202.65 966.604 200.55C961.004 197.05 958.204 191.8 958.204 184.8C958.204 176.867 961.004 172.9 966.604 172.9C970.57 172.9 972.554 176.517 972.554 183.75C972.554 185.383 972.32 187.367 971.854 189.7C971.387 192.033 970.804 194.833 970.104 198.1C973.37 197.867 978.504 197.633 985.504 197.4C992.737 196.933 999.62 196.7 1006.15 196.7C1018.05 196.7 1024 200.317 1024 207.55C1024 215.25 1014.79 231.117 996.354 255.15C992.387 260.983 987.954 267.633 983.054 275.1C978.387 282.333 976.054 289.8 976.054 297.5C976.054 299.6 976.52 301.583 977.454 303.45C978.387 305.317 980.37 306.25 983.404 306.25C993.437 306.25 1004.52 300.183 1016.65 288.05C1022.72 281.983 1028.32 275.45 1033.45 268.45C1038.59 261.45 1043.25 253.633 1047.45 245C1048.39 243.133 1049.2 242.2 1049.9 242.2C1050.37 242.2 1050.6 242.55 1050.6 243.25C1050.6 244.417 1050.25 245.7 1049.55 247.1C1045.59 255.267 1040.8 263.2 1035.2 270.9C1029.6 278.367 1023.42 285.483 1016.65 292.25C1005.22 303.683 994.137 309.4 983.404 309.4ZM1181.03 309.05C1168.89 309.05 1162.83 300.65 1162.83 283.85C1162.83 277.317 1163.88 269.85 1165.98 261.45C1149.64 292.95 1133.43 308.7 1117.33 308.7C1109.63 308.7 1103.79 304.85 1099.83 297.15C1096.56 291.317 1094.93 283.967 1094.93 275.1C1094.93 267.867 1095.98 260.283 1098.08 252.35C1102.04 238.583 1110.44 225.633 1123.28 213.5C1137.51 200.433 1151.04 193.9 1163.88 193.9C1175.54 193.9 1181.38 200.9 1181.38 214.9C1181.38 220.967 1180.09 228.083 1177.53 236.25L1198.88 194.25H1199.93C1200.63 195.417 1202.14 196 1204.48 196C1209.14 196 1215.09 193.2 1222.33 187.6L1223.03 188.3L1193.28 246.4C1181.38 269.5 1175.43 287 1175.43 298.9C1175.43 303.567 1177.53 305.9 1181.73 305.9C1184.53 305.9 1187.91 304.85 1191.88 302.75C1195.84 300.65 1200.04 297.15 1204.48 292.25C1210.08 285.717 1214.86 279.533 1218.83 273.7C1223.03 267.633 1227.81 259.467 1233.18 249.2C1233.88 248.033 1234.58 247.45 1235.28 247.45C1236.68 247.45 1236.68 248.617 1235.28 250.95C1231.08 258.883 1226.53 266.817 1221.63 274.75C1216.96 282.45 1211.24 289.683 1204.48 296.45C1196.08 304.85 1188.26 309.05 1181.03 309.05ZM1118.73 306.25C1131.79 306.25 1148.59 287.817 1169.13 250.95C1175.66 239.283 1178.93 227.5 1178.93 215.6C1178.93 203 1174.84 196.7 1166.68 196.7C1157.81 196.7 1147.78 204.05 1136.58 218.75C1132.14 224.817 1128.29 230.767 1125.03 236.6C1121.99 242.433 1119.54 248.033 1117.68 253.4C1112.78 267.4 1110.33 280 1110.33 291.2C1110.33 301.233 1113.13 306.25 1118.73 306.25Z" fill="#ED187C"/>
</svg>
