<svg width="1018" height="692" viewBox="0 0 1018 692" fill="none" xmlns="http://www.w3.org/2000/svg">
<path d="M430.938 548.022C406.018 549.112 375.358 553.312 354.608 568.192C328.628 586.822 311.988 631.512 342.018 654.442C354.798 664.202 379.738 663.882 389.378 649.962C393.938 643.372 393.198 633.462 383.938 633.022V647.522C383.938 651.152 374.368 647.092 373.168 640.292C371.968 633.492 371.408 620.122 373.168 613.762C376.128 603.062 395.178 611.712 399.148 619.322C404.178 628.962 402.288 649.092 398.668 659.262C386.328 693.982 346.038 696.512 327.758 664.702C309.238 632.462 315.858 582.572 340.418 555.012C376.178 514.882 453.878 524.112 502.388 525.072C581.198 526.642 659.758 529.362 738.478 530.982C805.008 532.352 865.008 537.462 923.258 498.852C1023.83 432.192 1040.44 256.422 948.418 176.042C881.048 117.192 809.908 155.652 763.508 217.102L744.938 243.022C745.918 232.422 748.548 221.972 749.828 211.422C758.568 139.162 754.158 40.522 655.538 52.132C604.708 58.122 566.528 89.832 535.948 128.542C499.888 174.182 478.068 228.642 437.348 270.942C418.128 290.912 380.618 324.152 351.248 310.222C341.258 305.482 341.478 300.342 344.448 290.042C350.168 270.222 363.948 249.532 371.448 230.042L373.448 223.052C368.388 228.312 363.608 233.942 358.958 239.552C340.948 261.302 324.918 287.132 299.868 301.462C290.458 306.842 276.848 312.352 266.228 308.252C256.478 304.492 261.888 289.662 264.758 282.352C271.798 264.472 283.288 247.592 288.938 229.032L281.418 236.002L260.508 262.082L256.018 262.932C255.358 261.142 254.858 259.772 255.108 257.782C255.898 251.522 277.118 227.742 282.358 220.942C289.618 211.522 296.288 201.512 303.368 191.952C309.888 189.602 317.198 189.592 323.718 187.302C328.878 185.492 337.428 177.592 335.488 189.072C322.608 213.822 307.318 237.752 295.388 262.972C292.528 269.022 286.148 283.192 286.288 289.372C286.388 294.072 289.468 294.532 293.468 293.072C305.168 288.802 323.858 267.812 332.458 258.042C346.998 241.502 359.828 223.432 373.938 206.522L354.588 206.882C348.728 205.002 360.178 194.692 362.448 193.022C369.688 187.692 376.788 191.242 384.958 189.532C391.558 180.302 397.728 170.692 403.128 160.702C405.448 156.402 414.818 134.572 416.178 133.262C416.968 132.502 426.438 129.412 429.258 127.832C433.668 125.372 441.798 117.032 444.668 116.212C448.458 115.132 449.788 117.582 448.418 120.992C447.118 124.222 441.288 130.002 438.918 133.502C431.188 144.922 424.828 157.272 417.128 168.712L406.938 190.022H439.438C441.278 190.022 445.808 193.382 441.878 196.472C430.238 205.622 405.248 196.702 395.738 211.322C387.658 223.742 369.078 270.462 368.008 284.652C366.848 300.002 378.948 291.672 385.858 287.442C432.128 259.072 469.738 188.432 498.518 143.102C544.798 70.192 617.958 -1.44798 712.198 33.272C763.488 52.172 769.938 106.372 766.938 154.522C766.158 167.042 765.568 179.672 762.948 192.022L775.498 171.082C827.028 95.392 932.188 112.392 979.368 183.102C1041.15 275.702 1028.14 433.992 943.958 509.542C887.848 559.902 821.468 558.442 750.438 555.022C653.248 550.332 555.568 546.912 457.938 548.022C448.978 548.122 439.878 547.632 430.938 548.022Z" fill="#DB1F60"/>
<path d="M310.318 483.422C296.898 494.352 278.928 498.852 261.428 497.032C245.798 495.412 238.938 478.062 247.918 465.492C250.298 464.022 260.008 467.052 263.448 467.052C287.368 467.052 312.268 448.382 308.878 422.602C306.978 408.172 290.788 397.132 277.198 395.282C223.808 387.992 180.668 458.112 171.438 503.012C166.228 528.322 166.578 562.782 194.968 573.522C221.998 583.742 258.558 573.842 265.678 543.242C268.088 532.852 266.768 523.332 268.038 513.602C270.058 498.072 281.448 502.222 288.798 511.702C313.098 543.032 290.458 593.042 270.788 621.352C239.418 666.502 181.778 707.192 124.698 684.802C90.4177 671.352 73.8877 637.082 88.7777 602.352C101.888 571.782 141.538 555.362 154.968 594.522C154.968 595.312 148.298 595.032 146.708 595.282C114.098 600.472 94.5077 656.242 128.968 671.522C190.198 698.662 242.438 625.162 258.438 575.012C258.898 573.562 259.558 571.532 259.468 570.052C222.028 610.852 150.388 602.012 136.248 544.252C116.948 465.412 188.338 377.972 270.468 383.032C332.108 386.822 361.728 441.552 310.348 483.432L310.318 483.422Z" fill="#060809"/>
<path d="M570.648 335.312C571.668 336.412 572.958 339.982 573.018 341.532C573.078 342.992 571.568 353.192 571.008 353.582C566.298 356.822 565.888 349.632 563.978 347.482C559.408 342.322 548.288 343.312 542.618 346.192C527.828 353.692 511.178 386.792 503.418 401.992C495.328 417.852 487.218 435.132 479.758 451.332C475.398 460.802 466.918 476.872 464.588 486.262C464.108 488.202 464.298 489.132 464.998 490.952C466.668 491.362 468.128 490.872 469.658 490.232C475.568 487.762 490.348 472.882 494.918 467.502C509.548 450.302 517.858 426.182 544.438 424.022C554.338 423.212 556.388 427.412 562.118 417.702C578.638 389.682 600.928 329.802 641.478 331.982C654.758 332.692 652.928 343.132 651.488 353.072C644.708 356.672 646.458 346.792 638.988 344.472C620.128 338.622 605.698 361.802 597.758 375.342C591.638 385.782 585.488 397.792 580.078 408.662C569.728 429.432 557.198 454.012 548.758 475.342C546.738 480.452 544.128 485.302 544.938 491.022C547.348 493.522 560.288 482.012 562.458 480.052C581.748 462.652 592.928 434.182 618.658 425.252C629.748 421.402 645.808 421.622 644.968 437.492C643.968 456.582 617.118 465.972 601.178 468.772C598.678 469.212 595.428 468.532 593.548 469.142C591.398 469.842 588.918 482.822 588.848 485.512C588.478 499.202 603.418 494.632 611.608 491.202C629.808 483.582 646.748 462.472 658.348 446.942C665.998 436.692 669.968 423.802 684.518 422.122C694.518 420.962 705.828 424.372 704.858 436.392C704.628 439.282 701.528 448.072 699.438 450.042C692.038 457.002 694.368 443.222 693.468 438.962C691.258 428.512 679.998 428.412 674.858 436.462C668.488 446.452 692.038 460.822 693.858 472.562C698.278 501.162 660.688 515.992 640.408 500.012C635.448 496.112 636.258 492.942 634.128 488.262C632.698 485.112 630.768 489.042 628.828 490.432C616.268 499.442 603.578 505.772 587.498 503.912C574.128 502.372 570.368 494.832 571.898 482.012C563.268 490.702 544.178 506.682 531.188 502.222C522.348 499.182 528.118 489.582 528.898 483.012C522.188 488.142 516.158 494.262 508.578 498.192C503.828 500.652 495.978 504.442 490.978 501.432C485.288 498.012 488.938 491.202 488.388 486.002C484.538 487.972 481.348 492.022 477.838 494.452C462.918 504.782 439.508 510.412 448.888 483.012C440.078 490.242 424.008 505.422 411.588 501.812C403.428 499.442 411.148 483.522 409.888 482.012C404.088 485.892 398.318 487.972 391.398 489.012C389.228 489.342 386.788 488.562 384.588 489.202C382.648 489.762 375.088 496.132 371.248 497.862C361.078 502.452 336.768 507.842 336.808 490.502C336.858 466.812 364.188 435.872 385.208 426.822C431.848 406.752 411.358 461.872 393.898 478.512C392.168 481.842 400.528 478.232 401.268 477.872C418.188 469.792 426.238 446.902 440.878 434.482C452.878 424.302 463.218 423.252 478.758 423.862C487.728 407.852 495.648 390.372 505.088 374.692C514.918 358.362 530.488 338.422 549.878 333.482C555.718 331.992 566.058 330.382 570.608 335.292L570.648 335.312ZM394.658 430.232C380.568 430.832 363.488 459.052 358.218 470.792C355.208 477.502 353.278 483.012 353.898 490.562C354.578 499.002 366.798 491.202 370.418 487.992C380.218 479.312 395.938 454.172 397.688 441.262C398.098 438.252 399.068 430.032 394.658 430.222V430.232ZM424.938 490.022C426.388 490.272 427.388 489.812 428.648 489.242C438.528 484.762 466.078 451.642 470.678 441.272C473.718 434.392 473.718 429.622 464.478 431.082C452.088 433.032 435.168 460.762 430.068 471.672C427.418 477.342 424.518 483.622 424.928 490.022H424.938ZM551.808 432.152C538.168 427.252 526.008 445.162 519.518 455.102C512.948 465.162 505.308 477.832 504.948 490.022C506.398 490.272 507.398 489.812 508.658 489.242C517.678 485.152 549.588 447.892 551.728 438.312C552.158 436.362 552.128 434.122 551.818 432.152H551.808ZM595.938 461.022C611.648 461.572 633.848 451.212 629.018 432.442C619.788 427.502 611.308 437.932 605.508 444.102L595.928 461.022H595.938ZM662.928 453.022C653.818 463.912 634.138 479.672 649.928 493.532C660.308 502.642 681.048 500.472 681.028 484.512C681.018 473.662 664.318 464.202 662.928 453.022ZM489.438 484.022V485.022C490.088 484.692 490.088 484.352 489.438 484.022Z" fill="#060809"/>
<path d="M306.438 175.022C307.088 174.952 308.428 173.412 309.938 174.022C310.538 180.512 305.608 182.822 300.618 185.192C285.278 192.512 267.748 192.452 251.078 193.162C223.758 258.212 201.438 327.372 155.758 382.382C125.948 418.292 82.0077 447.362 32.9177 435.532C16.4077 431.552 -1.23229 418.652 1.18771 399.762C2.06771 392.932 5.43771 383.082 7.90771 376.492C9.57771 372.042 15.3777 354.042 21.4077 362.062C24.7077 366.452 19.6377 371.872 19.0177 376.592C13.7377 416.402 62.9477 431.072 93.2977 417.872C111.978 409.752 130.018 390.662 141.758 374.332C180.178 320.922 197.988 254.982 221.838 194.402C222.228 192.592 221.898 193.062 220.448 193.012C213.678 192.742 207.268 193.632 200.578 193.872L198.918 191.552C203.838 180.112 219.118 175.142 230.818 174.902C245.738 140.032 262.238 104.342 282.908 72.4921C299.798 46.472 319.678 21.062 348.938 8.52205C362.028 2.91205 390.278 -4.83795 402.428 4.01205C413.628 12.162 407.528 26.302 407.438 38.022C399.358 44.612 400.678 35.552 397.788 30.652C395.398 26.592 389.828 23.482 385.468 21.972C337.518 5.35205 309.188 62.472 292.748 97.332C281.008 122.222 271.118 148.062 259.358 172.962L259.928 175.532C260.648 176.462 261.138 175.012 261.428 175.012C275.288 175.012 293.138 176.392 306.428 175.012L306.438 175.022Z" fill="#DB1F60"/>
<path d="M605.568 253.732C605.248 254.062 601.658 254.512 605.308 254.912C618.328 244.322 633.138 252.032 624.148 268.732C623.268 270.362 620.348 273.392 618.458 273.022C614.928 272.332 620.268 257.092 611.228 260.792C602.748 264.262 591.648 282.032 587.758 290.342C586.238 293.572 583.208 304.192 580.918 305.502C578.428 306.922 569.878 309.482 570.128 304.722L581.938 274.022C574.088 282.132 568.688 293.802 556.378 295.952C554.208 296.332 551.768 295.602 549.638 296.212C548.128 296.642 543.128 301.162 539.938 302.512C514.758 313.212 510.788 297.532 522.138 277.712C527.828 267.792 535.058 260.112 545.268 254.842C569.378 242.412 575.888 255.852 564.458 277.032C562.738 280.222 558.478 283.712 559.448 287.022C573.018 279.142 580.938 263.352 590.928 251.502C594.508 252.302 603.188 247.422 605.348 248.072C607.698 248.782 607.048 252.222 605.578 253.722L605.568 253.732ZM556.938 257.022C547.758 256.522 539.368 269.392 535.128 276.712C532.148 281.862 520.738 303.582 535.278 296.862C541.508 293.982 551.818 277.632 554.428 271.012C556.258 266.372 557.538 262.112 556.938 257.022ZM557.438 287.022V288.022C558.088 287.692 558.088 287.352 557.438 287.022Z" fill="#060809"/>
<path d="M537.938 251.022C538.558 254.772 534.838 256.382 531.918 257.502C526.858 259.442 521.368 259.232 516.048 260.132C508.438 279.222 501.328 300.272 489.748 317.332C478.058 334.572 460.178 351.002 437.668 345.772C429.008 343.762 424.678 337.572 426.168 328.742C426.668 325.742 431.478 311.992 435.488 317.962C437.128 320.402 432.458 326.462 436.928 332.512C443.288 341.112 457.018 338.942 464.848 333.432C484.678 319.482 494.258 283.252 502.928 261.492C503.148 259.572 502.948 260.082 501.438 260.022C488.968 259.542 501.508 250.412 507.748 250.832C517.928 227.692 535.638 184.422 567.378 189.062C576.098 190.332 573.718 206.842 569.538 205.952C567.078 205.152 566.658 200.802 565.278 199.922C561.798 197.712 554.698 198.042 550.898 199.472C545.828 201.382 537.478 213.382 534.758 218.332C530.888 225.362 523.758 240.542 521.388 247.962C521.058 249.002 520.748 249.882 520.938 251.012H537.938V251.022Z" fill="#060809"/>
<path d="M708.938 471.022C709.838 475.152 707.028 479.232 707.378 483.052C707.958 489.262 716.368 497.392 722.408 498.052C732.408 499.132 742.088 497.662 743.528 486.032C745.048 473.802 727.318 465.552 725.928 454.022C724.368 453.652 724.328 454.262 723.498 455.092C719.078 459.482 716.188 469.522 708.938 469.022L709.388 462.972C718.008 453.962 724.868 438.002 732.938 429.532C740.168 421.942 753.688 419.172 762.868 424.592C770.878 429.322 768.108 441.042 764.138 447.732C762.648 450.242 759.488 454.382 757.078 450.382C756.538 444.352 758.228 439.322 754.368 434.092C748.688 426.402 735.738 433.362 737.128 442.272C738.518 451.182 753.048 459.842 756.438 470.022C762.048 486.852 746.208 504.742 729.468 506.072C719.808 506.842 701.378 504.172 698.398 493.062C696.518 486.072 698.968 469.322 708.928 471.022H708.938Z" fill="#060809"/>
<path d="M695.938 296.022C699.938 299.862 716.548 278.602 719.088 275.672C722.828 271.352 724.978 275.422 722.828 280.412C719.728 287.582 706.678 299.812 699.628 303.212C691.328 307.212 681.218 308.422 682.938 296.022C681.558 294.642 675.708 300.292 673.858 301.442C668.028 305.062 660.368 308.862 656.098 301.322C655.358 298.832 658.958 287.802 660.178 284.762C665.248 272.042 679.708 252.542 694.428 251.012C697.538 250.692 718.598 250.672 719.968 251.492C724.578 254.262 715.988 257.472 714.908 258.492C713.298 260.012 710.538 265.392 709.138 267.722C707.208 270.912 694.388 294.522 695.948 296.022H695.938ZM699.938 257.022C693.448 256.192 687.798 261.862 683.958 266.532C681.198 269.892 667.388 292.222 669.948 295.012C672.098 294.872 674.368 292.872 675.958 291.532C680.538 287.682 686.178 281.242 689.918 276.492C691.998 273.862 702.728 259.772 699.938 257.012V257.022ZM683.438 294.022V295.022C684.088 294.692 684.088 294.352 683.438 294.022Z" fill="#060809"/>
<path d="M348.688 121.212C360.788 119.322 367.318 137.162 356.268 144.862C344.728 152.902 329.578 148.632 333.368 132.952C334.678 127.542 343.398 122.032 348.678 121.212H348.688Z" fill="#DB1F60"/>
</svg>
