<?xml version="1.0" encoding="UTF-8"?>
<svg id="Layer_1" xmlns="http://www.w3.org/2000/svg" version="1.1" viewBox="0 0 500 500">
  <!-- Generator: Adobe Illustrator 29.3.1, SVG Export Plug-In . SVG Version: 2.1.0 Build 151)  -->
  <defs>
    <style>
      .st0 {
        fill: #5ec3ac;
      }

      .st1 {
        fill: #fff;
      }

      .st2 {
        fill: #60c3ac;
      }
    </style>
  </defs>
  <polygon class="st0" points="333.86 69.23 429.92 235.61 333.86 401.98 141.75 401.98 45.69 235.61 141.75 69.23 333.86 69.23"/>
  <polygon class="st1" points="323.17 88.52 408.53 235.32 323.17 382.11 152.44 382.11 67.08 235.32 152.44 88.52 323.17 88.52"/>
  <polygon class="st2" points="312.84 98.65 387.88 230.88 312.84 363.1 162.77 363.1 87.73 230.88 162.77 98.65 312.84 98.65"/>
  <g>
    <path class="st1" d="M130.16,171.37v-7.47h45.66v7.47c-4.53,0-7.54.74-9.03,2.22-1.5,1.48-2.24,4.47-2.24,8.95v65.44c0,9.38-.88,16.67-2.65,21.88-1.77,5.21-5.33,9.48-10.68,12.83-5.36,3.34-12.11,5.01-20.25,5.01-6.64,0-12.02-1.22-16.13-3.67s-6.17-5.76-6.17-9.93c0-2.96,1.08-5.34,3.24-7.14,2.16-1.8,4.71-2.69,7.66-2.69s5.15.74,6.85,2.22c1.7,1.48,2.55,3.5,2.55,6.06,0,.76-.17,1.75-.5,2.96-.21.72-.31,1.26-.31,1.62,0,2.06,1.58,3.1,4.73,3.1,3.53,0,6.01-1.68,7.44-5.05s2.15-10.37,2.15-21v-71.63c0-4.17-.65-7.08-1.96-8.72-1.31-1.64-4.04-2.46-8.19-2.46h-2.18Z"/>
    <path class="st1" d="M214.01,219.1v17.44c0,4.22.65,7.14,1.96,8.75,1.31,1.62,4.14,2.42,8.5,2.42v7.47h-44.04v-7.47h1.31c4.24,0,6.99-.84,8.25-2.52,1.27-1.68,1.9-4.57,1.9-8.65v-53.99c0-4.17-.65-7.08-1.96-8.72-1.31-1.64-4.04-2.46-8.19-2.46h-1.31v-7.47h45.04v7.47h-1.37c-4.19,0-6.93.84-8.19,2.52-1.27,1.68-1.9,4.57-1.9,8.65v25.45l22.86-22.75c3.99-3.95,5.98-7.18,5.98-9.69,0-2.78-2.51-4.17-7.54-4.17v-7.47h37.38v7.47c-3.41,0-6.98.94-10.71,2.83-3.74,1.88-9.03,6.26-15.89,13.13l-7.66,7.67,23.24,37.3c3.9,6.28,7.13,10.42,9.69,12.42,2.55,2,5.97,3,10.25,3v7.47h-48.53v-7.47c6.31,0,9.47-1.37,9.47-4.11,0-1.17-1.29-3.77-3.86-7.81l-16.07-25.31-8.6,8.62Z"/>
    <path class="st1" d="M358.59,220.11v34.27h-6.92c-.79-3.64-1.97-6.55-3.55-8.75-7.02,7.63-16.28,11.44-27.78,11.44-13.08,0-23.55-4.62-31.4-13.87-7.85-9.25-11.77-20.22-11.77-32.92s3.88-23.65,11.65-33.39c7.77-9.74,18.5-14.61,32.21-14.61,10.26,0,18.96,3.66,26.1,10.97.96-2.29,1.83-5,2.62-8.15h6.85l.87,33.73h-6.85c-2.04-9.16-5.37-16.08-10-20.77-4.63-4.69-10.12-7.03-16.48-7.03-7.31,0-12.81,3.1-16.51,9.29-3.7,6.19-5.54,15.87-5.54,29.02,0,9.25.66,16.57,1.99,21.98,1.33,5.41,3.96,9.57,7.88,12.49,3.92,2.92,8.21,4.38,12.86,4.38,6.15,0,11.63-2.31,16.45-6.93,4.82-4.62,8.29-11.67,10.4-21.14h6.92Z"/>
  </g>
</svg>